# xmcd CD database file
#
# Track frame offsets:
#	150
#	13463
#	27776
#	40304
#	51949
#	65649
#	76759
#	88844
#	101222
#	112450
#	124961
#	138180
#	151378
#	165304
#	175457
#	186996
#	196330
#	208623
#	223068
#	235920
#	248317
#	263116
#
# Disc length: 3677 seconds
#
# Revision: 0
# Processed by: cddbd v1.5.2PL0 Copyright (c) Steve Scherf et al.
# Submitted via: CDex 1.70beta2
#
DISCID=420e5b16
DTITLE=GOC - Grand Old Country -  D1
DYEAR=2010
DGENRE=Country
TTITLE0=Hank Williams - Jambalaya (On the Bayou)
TTITLE1=The Carter Family - Can the Circle Be Unbroken
TTITLE2=Burl Ives - Big Rock Candy Mountain
TTITLE3=Hank Williams - Baby, We;re Really In Love
TTITLE4=Roy Williams - My Heart When That-A-Way
TTITLE5=Slim Whitman - Keep It A Secret
TTITLE6=Merle Travis - Blues, Stay Away From Me
TTITLE7=Earnest Tub - Blue Christmas
TTITLE8=Porter wagoner - Itchin' For My Baby
TTITLE9=Tex Ritter - Teh Gallows Pole
TTITLE10=Tex Williams and His Western Caravan - Smoke, Smoke, Smoke That cigarette
TTITLE11=Roy Acuff - Mule Skinner Blues (Blue Yodel #8)
TTITLE12=Vaughan Monroe - Bamboo (With the Moon Maids)
TTITLE13=Hank Snow - Down the Trail of the Aching Heart
TTITLE14=Hank Thompson - Breakin' In Another Heart
TTITLE15=Jimmy Wakely - A Bushel and A Peck
TTITLE16=Faron Young - You're Right (But I Wish You Were Wrong)
TTITLE17=The Carter Family - Answer To Weeping Wollow
TTITLE18=Tennessee Ernie Ford - Stack O Lee
TTITLE19=Hank Williams - Cold Cold Heart
TTITLE20=Gene Autry - Blue Hawaii
TTITLE21=Hank Williams - I'm So Lonesome I Could Cry
EXTD=YEAR: 2010
EXTT0=
EXTT1=
EXTT2=
EXTT3=
EXTT4=
EXTT5=
EXTT6=
EXTT7=
EXTT8=
EXTT9=
EXTT10=
EXTT11=
EXTT12=
EXTT13=
EXTT14=
EXTT15=
EXTT16=
EXTT17=
EXTT18=
EXTT19=
EXTT20=
EXTT21=
PLAYORDER=
